<svg width="896" height="288" viewBox="0 0 896 288" fill="none" xmlns="http://www.w3.org/2000/svg">


  <style>
    * {
      transform-origin: center;
      transform-box: fill-box;
    }

    .animate-ping {
      animation: ping 1s cubic-bezier(0, 0, 0.2, 1) infinite;
    }

    .animate-fade-in {
      animation: fade-in 0.64s cubic-bezier(0, 0, 0.2, 1) forwards;
    }

    .animate-fade-in-bottom {
      animation: fade-in-bottom 0.64s cubic-bezier(0, 0, 0.2, 1) forwards;
    }

    .animate-fade-in-right {
      animation: fade-in-right 0.64s cubic-bezier(0, 0, 0.2, 1) forwards;
    }

    .title {
      opacity: 0;
      animation-delay: 0.4s;
    }

    .description {
      opacity: 0;
      animation-delay: 0.7s;
    }

    .additional {
      opacity: 0;
      animation-delay: 1s;
    }

    .additional__indicator {
      opacity: 0;
      animation-delay: 1.6s;
    }

    @keyframes ping {
      75%,
      100% {
        transform: scale(2);
        opacity: 0;
      }
    }

    @keyframes fade-in {
      from {
        opacity: 0;
      }
      to {
        opacity: 1;
      }
    }

    @keyframes fade-in-bottom {
      from {
        opacity: 0;
        transform: translate3d(0, -20px, 0);
      }
      to {
        opacity: 1;
        transform: translate3d(0, 0, 0);
      }
    }

    @keyframes fade-in-right {
      from {
        opacity: 0;
        transform: translate3d(-20px, 0, 0);
      }
      to {
        opacity: 1;
        transform: translate3d(0, 0, 0);
      }
    }
  </style>
<!-- Background -->
<g clip-path="url(#clip0_8_62)">
<rect width="896" height="288" fill="url(#paint0_linear_8_62)" /> <!-- color linear -->
<mask 
    id="mask0_8_62" 
    style="mask-type:alpha" 
    maskUnits="userSpaceOnUse" 
    x="0" 
    y="0" 
    width="896" 
    height="288"
>

<path d="M0 32C0 14.3269 14.3269 0 32 0H864C881.673 0 896 14.3269 896 32V288H0V32Z" fill="white"/>


<rect width="896" height="288" fill="url(#paint1_linear_8_62)" /> <!-- color linear -->
</mask>

<g mask="url(#mask1_8_62)">
    <path  d="M32.5001 0V288M64.5001 0V288M96.5001 0V288M128.5 0V288M160.5 0V288M192.5 0V288M224.5 0V288M256.5 0V288M288.5 0V288M320.5 0V288M352.5 0V288M384.5 0V288M416.5 0V288M448.5 0V288M480.5 0V288M512.5 0V288M544.5 0V288M576.5 0V288M608.5 0V288M640.5 0V288M672.5 0V288M704.5 0V288M736.5 0V288M768.5 0V288M800.5 0V288M832.5 0V288M864.5 0V288M0 31.5H896M0 63.5H896M0 95.5H896M0 127.5H896M0 159.5H896M0 191.5H896M0 223.5H896M0 255.5H896" 
    stroke="white" 
    stroke-opacity="0.04" 
    stroke-dasharray="5 5"
  />
</g>
<!-- END: Background -->

<!-- Title -->
<g class="animate-fade-in-bottom title">
    <path
    d="M222.495 112.61V151H214.795V112.61H222.495ZM231.643 112.61H239.728L233.788 126.47H228.508L231.643 112.61ZM283.089 120.09C286.829 120.09 289.836 121.245 292.109 123.555C294.419 125.828 295.574 129.018 295.574 133.125V151H287.874V134.17C287.874 131.787 287.269 129.972 286.059 128.725C284.849 127.442 283.199 126.8 281.109 126.8C279.019 126.8 277.351 127.442 276.104 128.725C274.894 129.972 274.289 131.787 274.289 134.17V151H266.589V134.17C266.589 131.787 265.984 129.972 264.774 128.725C263.564 127.442 261.914 126.8 259.824 126.8C257.697 126.8 256.011 127.442 254.764 128.725C253.554 129.972 252.949 131.787 252.949 134.17V151H245.249V120.53H252.949V124.215C253.939 122.932 255.204 121.923 256.744 121.19C258.321 120.457 260.044 120.09 261.914 120.09C264.297 120.09 266.424 120.603 268.294 121.63C270.164 122.62 271.612 124.05 272.639 125.92C273.629 124.16 275.059 122.748 276.929 121.685C278.836 120.622 280.889 120.09 283.089 120.09ZM478.208 112.61V151H470.508V126.03L460.223 151H454.393L444.053 126.03V151H436.353V112.61H445.098L457.308 141.155L469.518 112.61H478.208ZM514.585 120.53V151H506.83V147.15C505.84 148.47 504.539 149.515 502.925 150.285C501.349 151.018 499.625 151.385 497.755 151.385C495.372 151.385 493.264 150.89 491.43 149.9C489.597 148.873 488.149 147.388 487.085 145.445C486.059 143.465 485.545 141.118 485.545 138.405V120.53H493.245V137.305C493.245 139.725 493.85 141.595 495.06 142.915C496.27 144.198 497.92 144.84 500.01 144.84C502.137 144.84 503.805 144.198 505.015 142.915C506.225 141.595 506.83 139.725 506.83 137.305V120.53H514.585ZM520.203 135.655C520.203 132.575 520.808 129.843 522.018 127.46C523.264 125.077 524.951 123.243 527.078 121.96C529.204 120.677 531.569 120.035 534.173 120.035C536.153 120.035 538.041 120.475 539.838 121.355C541.634 122.198 543.064 123.335 544.128 124.765V110.3H551.938V151H544.128V146.49C543.174 147.993 541.836 149.203 540.113 150.12C538.389 151.037 536.391 151.495 534.118 151.495C531.551 151.495 529.204 150.835 527.078 149.515C524.951 148.195 523.264 146.343 522.018 143.96C520.808 141.54 520.203 138.772 520.203 135.655ZM544.183 135.765C544.183 133.895 543.816 132.3 543.083 130.98C542.349 129.623 541.359 128.597 540.113 127.9C538.866 127.167 537.528 126.8 536.098 126.8C534.668 126.8 533.348 127.148 532.138 127.845C530.928 128.542 529.938 129.568 529.168 130.925C528.434 132.245 528.068 133.822 528.068 135.655C528.068 137.488 528.434 139.102 529.168 140.495C529.938 141.852 530.928 142.897 532.138 143.63C533.384 144.363 534.704 144.73 536.098 144.73C537.528 144.73 538.866 144.382 540.113 143.685C541.359 142.952 542.349 141.925 543.083 140.605C543.816 139.248 544.183 137.635 544.183 135.765ZM557.478 135.655C557.478 132.575 558.083 129.843 559.293 127.46C560.54 125.077 562.208 123.243 564.298 121.96C566.425 120.677 568.79 120.035 571.393 120.035C573.666 120.035 575.646 120.493 577.333 121.41C579.056 122.327 580.431 123.482 581.458 124.875V120.53H589.213V151H581.458V146.545C580.468 147.975 579.093 149.167 577.333 150.12C575.61 151.037 573.611 151.495 571.338 151.495C568.771 151.495 566.425 150.835 564.298 149.515C562.208 148.195 560.54 146.343 559.293 143.96C558.083 141.54 557.478 138.772 557.478 135.655ZM581.458 135.765C581.458 133.895 581.091 132.3 580.358 130.98C579.625 129.623 578.635 128.597 577.388 127.9C576.141 127.167 574.803 126.8 573.373 126.8C571.943 126.8 570.623 127.148 569.413 127.845C568.203 128.542 567.213 129.568 566.443 130.925C565.71 132.245 565.343 133.822 565.343 135.655C565.343 137.488 565.71 139.102 566.443 140.495C567.213 141.852 568.203 142.897 569.413 143.63C570.66 144.363 571.98 144.73 573.373 144.73C574.803 144.73 576.141 144.382 577.388 143.685C578.635 142.952 579.625 141.925 580.358 140.605C581.091 139.248 581.458 137.635 581.458 135.765ZM614.773 151L604.433 138.02V151H596.733V110.3H604.433V133.455L614.663 120.53H624.673L611.253 135.82L624.783 151H614.773ZM626.873 135.655C626.873 132.575 627.478 129.843 628.688 127.46C629.934 125.077 631.603 123.243 633.693 121.96C635.819 120.677 638.184 120.035 640.788 120.035C643.061 120.035 645.041 120.493 646.728 121.41C648.451 122.327 649.826 123.482 650.853 124.875V120.53H658.608V151H650.853V146.545C649.863 147.975 648.488 149.167 646.728 150.12C645.004 151.037 643.006 151.495 640.733 151.495C638.166 151.495 635.819 150.835 633.693 149.515C631.603 148.195 629.934 146.343 628.688 143.96C627.478 141.54 626.873 138.772 626.873 135.655ZM650.853 135.765C650.853 133.895 650.486 132.3 649.753 130.98C649.019 129.623 648.029 128.597 646.783 127.9C645.536 127.167 644.198 126.8 642.768 126.8C641.338 126.8 640.018 127.148 638.808 127.845C637.598 128.542 636.608 129.568 635.838 130.925C635.104 132.245 634.738 133.822 634.738 135.655C634.738 137.488 635.104 139.102 635.838 140.495C636.608 141.852 637.598 142.897 638.808 143.63C640.054 144.363 641.374 144.73 642.768 144.73C644.198 144.73 645.536 144.382 646.783 143.685C648.029 142.952 649.019 141.925 649.753 140.605C650.486 139.248 650.853 137.635 650.853 135.765ZM673.828 125.26C674.818 123.647 676.101 122.382 677.678 121.465C679.291 120.548 681.125 120.09 683.178 120.09V128.175H681.143C678.723 128.175 676.89 128.743 675.643 129.88C674.433 131.017 673.828 132.997 673.828 135.82V151H666.128V120.53H673.828V125.26Z" fill="url(#paint3_linear_8_62)"
    />

    <path d="M339.526 143.685H324.236L321.706 151H313.621L327.426 112.555H336.391L350.196 151H342.056L339.526 143.685ZM337.436 137.525L331.881 121.465L326.326 137.525H337.436ZM363.057 110.3V151H355.357V110.3H363.057ZM378.364 124.985C379.354 123.518 380.711 122.327 382.434 121.41C384.194 120.493 386.192 120.035 388.429 120.035C391.032 120.035 393.379 120.677 395.469 121.96C397.596 123.243 399.264 125.077 400.474 127.46C401.721 129.807 402.344 132.538 402.344 135.655C402.344 138.772 401.721 141.54 400.474 143.96C399.264 146.343 397.596 148.195 395.469 149.515C393.379 150.835 391.032 151.495 388.429 151.495C386.156 151.495 384.157 151.055 382.434 150.175C380.747 149.258 379.391 148.085 378.364 146.655V151H370.664V110.3H378.364V124.985ZM394.479 135.655C394.479 133.822 394.094 132.245 393.324 130.925C392.591 129.568 391.601 128.542 390.354 127.845C389.144 127.148 387.824 126.8 386.394 126.8C385.001 126.8 383.681 127.167 382.434 127.9C381.224 128.597 380.234 129.623 379.464 130.98C378.731 132.337 378.364 133.932 378.364 135.765C378.364 137.598 378.731 139.193 379.464 140.55C380.234 141.907 381.224 142.952 382.434 143.685C383.681 144.382 385.001 144.73 386.394 144.73C387.824 144.73 389.144 144.363 390.354 143.63C391.601 142.897 392.591 141.852 393.324 140.495C394.094 139.138 394.479 137.525 394.479 135.655ZM411.845 116.9C410.488 116.9 409.351 116.478 408.435 115.635C407.555 114.755 407.115 113.673 407.115 112.39C407.115 111.107 407.555 110.043 408.435 109.2C409.351 108.32 410.488 107.88 411.845 107.88C413.201 107.88 414.32 108.32 415.2 109.2C416.116 110.043 416.575 111.107 416.575 112.39C416.575 113.673 416.116 114.755 415.2 115.635C414.32 116.478 413.201 116.9 411.845 116.9ZM415.64 120.53V151H407.94V120.53H415.64Z" fill="#186F65"
    />
</g>
<!-- END: Title -->


<!-- Description -->
<g class="animate-fade-in-bottom description">
    <path
    d="M286.47 187.105C285.78 187.105 285.16 186.985 284.61 186.745C284.07 186.495 283.645 186.155 283.335 185.725C283.025 185.285 282.865 184.78 282.855 184.21H284.31C284.36 184.7 284.56 185.115 284.91 185.455C285.27 185.785 285.79 185.95 286.47 185.95C287.12 185.95 287.63 185.79 288 185.47C288.38 185.14 288.57 184.72 288.57 184.21C288.57 183.81 288.46 183.485 288.24 183.235C288.02 182.985 287.745 182.795 287.415 182.665C287.085 182.535 286.64 182.395 286.08 182.245C285.39 182.065 284.835 181.885 284.415 181.705C284.005 181.525 283.65 181.245 283.35 180.865C283.06 180.475 282.915 179.955 282.915 179.305C282.915 178.735 283.06 178.23 283.35 177.79C283.64 177.35 284.045 177.01 284.565 176.77C285.095 176.53 285.7 176.41 286.38 176.41C287.36 176.41 288.16 176.655 288.78 177.145C289.41 177.635 289.765 178.285 289.845 179.095H288.345C288.295 178.695 288.085 178.345 287.715 178.045C287.345 177.735 286.855 177.58 286.245 177.58C285.675 177.58 285.21 177.73 284.85 178.03C284.49 178.32 284.31 178.73 284.31 179.26C284.31 179.64 284.415 179.95 284.625 180.19C284.845 180.43 285.11 180.615 285.42 180.745C285.74 180.865 286.185 181.005 286.755 181.165C287.445 181.355 288 181.545 288.42 181.735C288.84 181.915 289.2 182.2 289.5 182.59C289.8 182.97 289.95 183.49 289.95 184.15C289.95 184.66 289.815 185.14 289.545 185.59C289.275 186.04 288.875 186.405 288.345 186.685C287.815 186.965 287.19 187.105 286.47 187.105ZM293.624 179.905V184.75C293.624 185.15 293.709 185.435 293.879 185.605C294.049 185.765 294.344 185.845 294.764 185.845H295.769V187H294.539C293.779 187 293.209 186.825 292.829 186.475C292.449 186.125 292.259 185.55 292.259 184.75V179.905H291.194V178.78H292.259V176.71H293.624V178.78H295.769V179.905H293.624ZM304.713 178.78V187H303.348V185.785C303.088 186.205 302.723 186.535 302.253 186.775C301.793 187.005 301.283 187.12 300.723 187.12C300.083 187.12 299.508 186.99 298.998 186.73C298.488 186.46 298.083 186.06 297.783 185.53C297.493 185 297.348 184.355 297.348 183.595V178.78H298.698V183.415C298.698 184.225 298.903 184.85 299.313 185.29C299.723 185.72 300.283 185.935 300.993 185.935C301.723 185.935 302.298 185.71 302.718 185.26C303.138 184.81 303.348 184.155 303.348 183.295V178.78H304.713ZM306.507 182.86C306.507 182.02 306.677 181.285 307.017 180.655C307.357 180.015 307.822 179.52 308.412 179.17C309.012 178.82 309.682 178.645 310.422 178.645C311.062 178.645 311.657 178.795 312.207 179.095C312.757 179.385 313.177 179.77 313.467 180.25V175.9H314.847V187H313.467V185.455C313.197 185.945 312.797 186.35 312.267 186.67C311.737 186.98 311.117 187.135 310.407 187.135C309.677 187.135 309.012 186.955 308.412 186.595C307.822 186.235 307.357 185.73 307.017 185.08C306.677 184.43 306.507 183.69 306.507 182.86ZM313.467 182.875C313.467 182.255 313.342 181.715 313.092 181.255C312.842 180.795 312.502 180.445 312.072 180.205C311.652 179.955 311.187 179.83 310.677 179.83C310.167 179.83 309.702 179.95 309.282 180.19C308.862 180.43 308.527 180.78 308.277 181.24C308.027 181.7 307.902 182.24 307.902 182.86C307.902 183.49 308.027 184.04 308.277 184.51C308.527 184.97 308.862 185.325 309.282 185.575C309.702 185.815 310.167 185.935 310.677 185.935C311.187 185.935 311.652 185.815 312.072 185.575C312.502 185.325 312.842 184.97 313.092 184.51C313.342 184.04 313.467 183.495 313.467 182.875ZM324.654 182.575C324.654 182.835 324.639 183.11 324.609 183.4H318.039C318.089 184.21 318.364 184.845 318.864 185.305C319.374 185.755 319.989 185.98 320.709 185.98C321.299 185.98 321.789 185.845 322.179 185.575C322.579 185.295 322.859 184.925 323.019 184.465H324.489C324.269 185.255 323.829 185.9 323.169 186.4C322.509 186.89 321.689 187.135 320.709 187.135C319.929 187.135 319.229 186.96 318.609 186.61C317.999 186.26 317.519 185.765 317.169 185.125C316.819 184.475 316.644 183.725 316.644 182.875C316.644 182.025 316.814 181.28 317.154 180.64C317.494 180 317.969 179.51 318.579 179.17C319.199 178.82 319.909 178.645 320.709 178.645C321.489 178.645 322.179 178.815 322.779 179.155C323.379 179.495 323.839 179.965 324.159 180.565C324.489 181.155 324.654 181.825 324.654 182.575ZM323.244 182.29C323.244 181.77 323.129 181.325 322.899 180.955C322.669 180.575 322.354 180.29 321.954 180.1C321.564 179.9 321.129 179.8 320.649 179.8C319.959 179.8 319.369 180.02 318.879 180.46C318.399 180.9 318.124 181.51 318.054 182.29H323.244ZM330.461 178.63C331.461 178.63 332.271 178.935 332.891 179.545C333.511 180.145 333.821 181.015 333.821 182.155V187H332.471V182.35C332.471 181.53 332.266 180.905 331.856 180.475C331.446 180.035 330.886 179.815 330.176 179.815C329.456 179.815 328.881 180.04 328.451 180.49C328.031 180.94 327.821 181.595 327.821 182.455V187H326.456V178.78H327.821V179.95C328.091 179.53 328.456 179.205 328.916 178.975C329.386 178.745 329.901 178.63 330.461 178.63ZM337.716 179.905V184.75C337.716 185.15 337.801 185.435 337.971 185.605C338.141 185.765 338.436 185.845 338.856 185.845H339.861V187H338.631C337.871 187 337.301 186.825 336.921 186.475C336.541 186.125 336.351 185.55 336.351 184.75V179.905H335.286V178.78H336.351V176.71H337.716V178.78H339.861V179.905H337.716ZM347.223 188.59H345.858V175.075H347.223V188.59ZM367.018 176.545L363.988 187H362.458L360.028 178.585L357.508 187L355.993 187.015L353.068 176.545H354.523L356.803 185.41L359.323 176.545H360.853L363.253 185.38L365.548 176.545H367.018ZM376.011 182.575C376.011 182.835 375.996 183.11 375.966 183.4H369.396C369.446 184.21 369.721 184.845 370.221 185.305C370.731 185.755 371.346 185.98 372.066 185.98C372.656 185.98 373.146 185.845 373.536 185.575C373.936 185.295 374.216 184.925 374.376 184.465H375.846C375.626 185.255 375.186 185.9 374.526 186.4C373.866 186.89 373.046 187.135 372.066 187.135C371.286 187.135 370.586 186.96 369.966 186.61C369.356 186.26 368.876 185.765 368.526 185.125C368.176 184.475 368.001 183.725 368.001 182.875C368.001 182.025 368.171 181.28 368.511 180.64C368.851 180 369.326 179.51 369.936 179.17C370.556 178.82 371.266 178.645 372.066 178.645C372.846 178.645 373.536 178.815 374.136 179.155C374.736 179.495 375.196 179.965 375.516 180.565C375.846 181.155 376.011 181.825 376.011 182.575ZM374.601 182.29C374.601 181.77 374.486 181.325 374.256 180.955C374.026 180.575 373.711 180.29 373.311 180.1C372.921 179.9 372.486 179.8 372.006 179.8C371.316 179.8 370.726 180.02 370.236 180.46C369.756 180.9 369.481 181.51 369.411 182.29H374.601ZM379.178 180.31C379.458 179.82 379.868 179.42 380.408 179.11C380.948 178.8 381.563 178.645 382.253 178.645C382.993 178.645 383.658 178.82 384.248 179.17C384.838 179.52 385.303 180.015 385.643 180.655C385.983 181.285 386.153 182.02 386.153 182.86C386.153 183.69 385.983 184.43 385.643 185.08C385.303 185.73 384.833 186.235 384.233 186.595C383.643 186.955 382.983 187.135 382.253 187.135C381.543 187.135 380.918 186.98 380.378 186.67C379.848 186.36 379.448 185.965 379.178 185.485V187H377.813V175.9H379.178V180.31ZM384.758 182.86C384.758 182.24 384.633 181.7 384.383 181.24C384.133 180.78 383.793 180.43 383.363 180.19C382.943 179.95 382.478 179.83 381.968 179.83C381.468 179.83 381.003 179.955 380.573 180.205C380.153 180.445 379.813 180.8 379.553 181.27C379.303 181.73 379.178 182.265 379.178 182.875C379.178 183.495 379.303 184.04 379.553 184.51C379.813 184.97 380.153 185.325 380.573 185.575C381.003 185.815 381.468 185.935 381.968 185.935C382.478 185.935 382.943 185.815 383.363 185.575C383.793 185.325 384.133 184.97 384.383 184.51C384.633 184.04 384.758 183.49 384.758 182.86ZM395.204 176.545C396.344 176.545 397.329 176.76 398.159 177.19C398.999 177.61 399.639 178.215 400.079 179.005C400.529 179.795 400.754 180.725 400.754 181.795C400.754 182.865 400.529 183.795 400.079 184.585C399.639 185.365 398.999 185.965 398.159 186.385C397.329 186.795 396.344 187 395.204 187H391.949V176.545H395.204ZM395.204 185.875C396.554 185.875 397.584 185.52 398.294 184.81C399.004 184.09 399.359 183.085 399.359 181.795C399.359 180.495 398.999 179.48 398.279 178.75C397.569 178.02 396.544 177.655 395.204 177.655H393.314V185.875H395.204ZM410.054 182.575C410.054 182.835 410.039 183.11 410.009 183.4H403.439C403.489 184.21 403.764 184.845 404.264 185.305C404.774 185.755 405.389 185.98 406.109 185.98C406.699 185.98 407.189 185.845 407.579 185.575C407.979 185.295 408.259 184.925 408.419 184.465H409.889C409.669 185.255 409.229 185.9 408.569 186.4C407.909 186.89 407.089 187.135 406.109 187.135C405.329 187.135 404.629 186.96 404.009 186.61C403.399 186.26 402.919 185.765 402.569 185.125C402.219 184.475 402.044 183.725 402.044 182.875C402.044 182.025 402.214 181.28 402.554 180.64C402.894 180 403.369 179.51 403.979 179.17C404.599 178.82 405.309 178.645 406.109 178.645C406.889 178.645 407.579 178.815 408.179 179.155C408.779 179.495 409.239 179.965 409.559 180.565C409.889 181.155 410.054 181.825 410.054 182.575ZM408.644 182.29C408.644 181.77 408.529 181.325 408.299 180.955C408.069 180.575 407.754 180.29 407.354 180.1C406.964 179.9 406.529 179.8 406.049 179.8C405.359 179.8 404.769 180.02 404.279 180.46C403.799 180.9 403.524 181.51 403.454 182.29H408.644ZM414.916 185.74L417.466 178.78H418.921L415.696 187H414.106L410.881 178.78H412.351L414.916 185.74ZM427.764 182.575C427.764 182.835 427.749 183.11 427.719 183.4H421.149C421.199 184.21 421.474 184.845 421.974 185.305C422.484 185.755 423.099 185.98 423.819 185.98C424.409 185.98 424.899 185.845 425.289 185.575C425.689 185.295 425.969 184.925 426.129 184.465H427.599C427.379 185.255 426.939 185.9 426.279 186.4C425.619 186.89 424.799 187.135 423.819 187.135C423.039 187.135 422.339 186.96 421.719 186.61C421.109 186.26 420.629 185.765 420.279 185.125C419.929 184.475 419.754 183.725 419.754 182.875C419.754 182.025 419.924 181.28 420.264 180.64C420.604 180 421.079 179.51 421.689 179.17C422.309 178.82 423.019 178.645 423.819 178.645C424.599 178.645 425.289 178.815 425.889 179.155C426.489 179.495 426.949 179.965 427.269 180.565C427.599 181.155 427.764 181.825 427.764 182.575ZM426.354 182.29C426.354 181.77 426.239 181.325 426.009 180.955C425.779 180.575 425.464 180.29 425.064 180.1C424.674 179.9 424.239 179.8 423.759 179.8C423.069 179.8 422.479 180.02 421.989 180.46C421.509 180.9 421.234 181.51 421.164 182.29H426.354ZM430.931 175.9V187H429.566V175.9H430.931ZM436.843 187.135C436.073 187.135 435.373 186.96 434.743 186.61C434.123 186.26 433.633 185.765 433.273 185.125C432.923 184.475 432.748 183.725 432.748 182.875C432.748 182.035 432.928 181.295 433.288 180.655C433.658 180.005 434.158 179.51 434.788 179.17C435.418 178.82 436.123 178.645 436.903 178.645C437.683 178.645 438.388 178.82 439.018 179.17C439.648 179.51 440.143 180 440.503 180.64C440.873 181.28 441.058 182.025 441.058 182.875C441.058 183.725 440.868 184.475 440.488 185.125C440.118 185.765 439.613 186.26 438.973 186.61C438.333 186.96 437.623 187.135 436.843 187.135ZM436.843 185.935C437.333 185.935 437.793 185.82 438.223 185.59C438.653 185.36 438.998 185.015 439.258 184.555C439.528 184.095 439.663 183.535 439.663 182.875C439.663 182.215 439.533 181.655 439.273 181.195C439.013 180.735 438.673 180.395 438.253 180.175C437.833 179.945 437.378 179.83 436.888 179.83C436.388 179.83 435.928 179.945 435.508 180.175C435.098 180.395 434.768 180.735 434.518 181.195C434.268 181.655 434.143 182.215 434.143 182.875C434.143 183.545 434.263 184.11 434.503 184.57C434.753 185.03 435.083 185.375 435.493 185.605C435.903 185.825 436.353 185.935 436.843 185.935ZM444.217 180.295C444.487 179.825 444.887 179.435 445.417 179.125C445.957 178.805 446.582 178.645 447.292 178.645C448.022 178.645 448.682 178.82 449.272 179.17C449.872 179.52 450.342 180.015 450.682 180.655C451.022 181.285 451.192 182.02 451.192 182.86C451.192 183.69 451.022 184.43 450.682 185.08C450.342 185.73 449.872 186.235 449.272 186.595C448.682 186.955 448.022 187.135 447.292 187.135C446.592 187.135 445.972 186.98 445.432 186.67C444.902 186.35 444.497 185.955 444.217 185.485V190.9H442.852V178.78H444.217V180.295ZM449.797 182.86C449.797 182.24 449.672 181.7 449.422 181.24C449.172 180.78 448.832 180.43 448.402 180.19C447.982 179.95 447.517 179.83 447.007 179.83C446.507 179.83 446.042 179.955 445.612 180.205C445.192 180.445 444.852 180.8 444.592 181.27C444.342 181.73 444.217 182.265 444.217 182.875C444.217 183.495 444.342 184.04 444.592 184.51C444.852 184.97 445.192 185.325 445.612 185.575C446.042 185.815 446.507 185.935 447.007 185.935C447.517 185.935 447.982 185.815 448.402 185.575C448.832 185.325 449.172 184.97 449.422 184.51C449.672 184.04 449.797 183.49 449.797 182.86ZM460.489 182.575C460.489 182.835 460.474 183.11 460.444 183.4H453.874C453.924 184.21 454.199 184.845 454.699 185.305C455.209 185.755 455.824 185.98 456.544 185.98C457.134 185.98 457.624 185.845 458.014 185.575C458.414 185.295 458.694 184.925 458.854 184.465H460.324C460.104 185.255 459.664 185.9 459.004 186.4C458.344 186.89 457.524 187.135 456.544 187.135C455.764 187.135 455.064 186.96 454.444 186.61C453.834 186.26 453.354 185.765 453.004 185.125C452.654 184.475 452.479 183.725 452.479 182.875C452.479 182.025 452.649 181.28 452.989 180.64C453.329 180 453.804 179.51 454.414 179.17C455.034 178.82 455.744 178.645 456.544 178.645C457.324 178.645 458.014 178.815 458.614 179.155C459.214 179.495 459.674 179.965 459.994 180.565C460.324 181.155 460.489 181.825 460.489 182.575ZM459.079 182.29C459.079 181.77 458.964 181.325 458.734 180.955C458.504 180.575 458.189 180.29 457.789 180.1C457.399 179.9 456.964 179.8 456.484 179.8C455.794 179.8 455.204 180.02 454.714 180.46C454.234 180.9 453.959 181.51 453.889 182.29H459.079ZM463.656 180.115C463.896 179.645 464.236 179.28 464.676 179.02C465.126 178.76 465.671 178.63 466.311 178.63V180.04H465.951C464.421 180.04 463.656 180.87 463.656 182.53V187H462.291V178.78H463.656V180.115ZM473.595 188.59H472.23V175.075H473.595V188.59ZM479.74 181.765C479.74 180.745 479.97 179.83 480.43 179.02C480.89 178.2 481.515 177.56 482.305 177.1C483.105 176.64 483.99 176.41 484.96 176.41C486.1 176.41 487.095 176.685 487.945 177.235C488.795 177.785 489.415 178.565 489.805 179.575H488.17C487.88 178.945 487.46 178.46 486.91 178.12C486.37 177.78 485.72 177.61 484.96 177.61C484.23 177.61 483.575 177.78 482.995 178.12C482.415 178.46 481.96 178.945 481.63 179.575C481.3 180.195 481.135 180.925 481.135 181.765C481.135 182.595 481.3 183.325 481.63 183.955C481.96 184.575 482.415 185.055 482.995 185.395C483.575 185.735 484.23 185.905 484.96 185.905C485.72 185.905 486.37 185.74 486.91 185.41C487.46 185.07 487.88 184.585 488.17 183.955H489.805C489.415 184.955 488.795 185.73 487.945 186.28C487.095 186.82 486.1 187.09 484.96 187.09C483.99 187.09 483.105 186.865 482.305 186.415C481.515 185.955 480.89 185.32 480.43 184.51C479.97 183.7 479.74 182.785 479.74 181.765ZM493.202 175.9V187H491.837V175.9H493.202ZM499.113 187.135C498.343 187.135 497.643 186.96 497.013 186.61C496.393 186.26 495.903 185.765 495.543 185.125C495.193 184.475 495.018 183.725 495.018 182.875C495.018 182.035 495.198 181.295 495.558 180.655C495.928 180.005 496.428 179.51 497.058 179.17C497.688 178.82 498.393 178.645 499.173 178.645C499.953 178.645 500.658 178.82 501.288 179.17C501.918 179.51 502.413 180 502.773 180.64C503.143 181.28 503.328 182.025 503.328 182.875C503.328 183.725 503.138 184.475 502.758 185.125C502.388 185.765 501.883 186.26 501.243 186.61C500.603 186.96 499.893 187.135 499.113 187.135ZM499.113 185.935C499.603 185.935 500.063 185.82 500.493 185.59C500.923 185.36 501.268 185.015 501.528 184.555C501.798 184.095 501.933 183.535 501.933 182.875C501.933 182.215 501.803 181.655 501.543 181.195C501.283 180.735 500.943 180.395 500.523 180.175C500.103 179.945 499.648 179.83 499.158 179.83C498.658 179.83 498.198 179.945 497.778 180.175C497.368 180.395 497.038 180.735 496.788 181.195C496.538 181.655 496.413 182.215 496.413 182.875C496.413 183.545 496.533 184.11 496.773 184.57C497.023 185.03 497.353 185.375 497.763 185.605C498.173 185.825 498.623 185.935 499.113 185.935ZM512.413 178.78V187H511.048V185.785C510.788 186.205 510.423 186.535 509.953 186.775C509.493 187.005 508.983 187.12 508.423 187.12C507.783 187.12 507.208 186.99 506.698 186.73C506.188 186.46 505.783 186.06 505.483 185.53C505.193 185 505.048 184.355 505.048 183.595V178.78H506.398V183.415C506.398 184.225 506.603 184.85 507.013 185.29C507.423 185.72 507.983 185.935 508.693 185.935C509.423 185.935 509.998 185.71 510.418 185.26C510.838 184.81 511.048 184.155 511.048 183.295V178.78H512.413ZM514.208 182.86C514.208 182.02 514.378 181.285 514.718 180.655C515.058 180.015 515.523 179.52 516.113 179.17C516.713 178.82 517.383 178.645 518.123 178.645C518.763 178.645 519.358 178.795 519.908 179.095C520.458 179.385 520.878 179.77 521.168 180.25V175.9H522.548V187H521.168V185.455C520.898 185.945 520.498 186.35 519.968 186.67C519.438 186.98 518.818 187.135 518.108 187.135C517.378 187.135 516.713 186.955 516.113 186.595C515.523 186.235 515.058 185.73 514.718 185.08C514.378 184.43 514.208 183.69 514.208 182.86ZM521.168 182.875C521.168 182.255 521.043 181.715 520.793 181.255C520.543 180.795 520.203 180.445 519.773 180.205C519.353 179.955 518.888 179.83 518.378 179.83C517.868 179.83 517.403 179.95 516.983 180.19C516.563 180.43 516.228 180.78 515.978 181.24C515.728 181.7 515.603 182.24 515.603 182.86C515.603 183.49 515.728 184.04 515.978 184.51C516.228 184.97 516.563 185.325 516.983 185.575C517.403 185.815 517.868 185.935 518.378 185.935C518.888 185.935 519.353 185.815 519.773 185.575C520.203 185.325 520.543 184.97 520.793 184.51C521.043 184.04 521.168 183.495 521.168 182.875ZM528.343 181.765C528.343 180.745 528.573 179.83 529.033 179.02C529.493 178.2 530.118 177.56 530.908 177.1C531.708 176.64 532.593 176.41 533.563 176.41C534.703 176.41 535.698 176.685 536.548 177.235C537.398 177.785 538.018 178.565 538.408 179.575H536.773C536.483 178.945 536.063 178.46 535.513 178.12C534.973 177.78 534.323 177.61 533.563 177.61C532.833 177.61 532.178 177.78 531.598 178.12C531.018 178.46 530.563 178.945 530.233 179.575C529.903 180.195 529.738 180.925 529.738 181.765C529.738 182.595 529.903 183.325 530.233 183.955C530.563 184.575 531.018 185.055 531.598 185.395C532.178 185.735 532.833 185.905 533.563 185.905C534.323 185.905 534.973 185.74 535.513 185.41C536.063 185.07 536.483 184.585 536.773 183.955H538.408C538.018 184.955 537.398 185.73 536.548 186.28C535.698 186.82 534.703 187.09 533.563 187.09C532.593 187.09 531.708 186.865 530.908 186.415C530.118 185.955 529.493 185.32 529.033 184.51C528.573 183.7 528.343 182.785 528.343 181.765ZM544.025 187.135C543.255 187.135 542.555 186.96 541.925 186.61C541.305 186.26 540.815 185.765 540.455 185.125C540.105 184.475 539.93 183.725 539.93 182.875C539.93 182.035 540.11 181.295 540.47 180.655C540.84 180.005 541.34 179.51 541.97 179.17C542.6 178.82 543.305 178.645 544.085 178.645C544.865 178.645 545.57 178.82 546.2 179.17C546.83 179.51 547.325 180 547.685 180.64C548.055 181.28 548.24 182.025 548.24 182.875C548.24 183.725 548.05 184.475 547.67 185.125C547.3 185.765 546.795 186.26 546.155 186.61C545.515 186.96 544.805 187.135 544.025 187.135ZM544.025 185.935C544.515 185.935 544.975 185.82 545.405 185.59C545.835 185.36 546.18 185.015 546.44 184.555C546.71 184.095 546.845 183.535 546.845 182.875C546.845 182.215 546.715 181.655 546.455 181.195C546.195 180.735 545.855 180.395 545.435 180.175C545.015 179.945 544.56 179.83 544.07 179.83C543.57 179.83 543.11 179.945 542.69 180.175C542.28 180.395 541.95 180.735 541.7 181.195C541.45 181.655 541.325 182.215 541.325 182.875C541.325 183.545 541.445 184.11 541.685 184.57C541.935 185.03 542.265 185.375 542.675 185.605C543.085 185.825 543.535 185.935 544.025 185.935ZM559.92 178.63C560.56 178.63 561.13 178.765 561.63 179.035C562.13 179.295 562.525 179.69 562.815 180.22C563.105 180.75 563.25 181.395 563.25 182.155V187H561.9V182.35C561.9 181.53 561.695 180.905 561.285 180.475C560.885 180.035 560.34 179.815 559.65 179.815C558.94 179.815 558.375 180.045 557.955 180.505C557.535 180.955 557.325 181.61 557.325 182.47V187H555.975V182.35C555.975 181.53 555.77 180.905 555.36 180.475C554.96 180.035 554.415 179.815 553.725 179.815C553.015 179.815 552.45 180.045 552.03 180.505C551.61 180.955 551.4 181.61 551.4 182.47V187H550.035V178.78H551.4V179.965C551.67 179.535 552.03 179.205 552.48 178.975C552.94 178.745 553.445 178.63 553.995 178.63C554.685 178.63 555.295 178.785 555.825 179.095C556.355 179.405 556.75 179.86 557.01 180.46C557.24 179.88 557.62 179.43 558.15 179.11C558.68 178.79 559.27 178.63 559.92 178.63ZM566.854 180.295C567.124 179.825 567.524 179.435 568.054 179.125C568.594 178.805 569.219 178.645 569.929 178.645C570.659 178.645 571.319 178.82 571.909 179.17C572.509 179.52 572.979 180.015 573.319 180.655C573.659 181.285 573.829 182.02 573.829 182.86C573.829 183.69 573.659 184.43 573.319 185.08C572.979 185.73 572.509 186.235 571.909 186.595C571.319 186.955 570.659 187.135 569.929 187.135C569.229 187.135 568.609 186.98 568.069 186.67C567.539 186.35 567.134 185.955 566.854 185.485V190.9H565.489V178.78H566.854V180.295ZM572.434 182.86C572.434 182.24 572.309 181.7 572.059 181.24C571.809 180.78 571.469 180.43 571.039 180.19C570.619 179.95 570.154 179.83 569.644 179.83C569.144 179.83 568.679 179.955 568.249 180.205C567.829 180.445 567.489 180.8 567.229 181.27C566.979 181.73 566.854 182.265 566.854 182.875C566.854 183.495 566.979 184.04 567.229 184.51C567.489 184.97 567.829 185.325 568.249 185.575C568.679 185.815 569.144 185.935 569.644 185.935C570.154 185.935 570.619 185.815 571.039 185.575C571.469 185.325 571.809 184.97 572.059 184.51C572.309 184.04 572.434 183.49 572.434 182.86ZM582.916 178.78V187H581.551V185.785C581.291 186.205 580.926 186.535 580.456 186.775C579.996 187.005 579.486 187.12 578.926 187.12C578.286 187.12 577.711 186.99 577.201 186.73C576.691 186.46 576.286 186.06 575.986 185.53C575.696 185 575.551 184.355 575.551 183.595V178.78H576.901V183.415C576.901 184.225 577.106 184.85 577.516 185.29C577.926 185.72 578.486 185.935 579.196 185.935C579.926 185.935 580.501 185.71 580.921 185.26C581.341 184.81 581.551 184.155 581.551 183.295V178.78H582.916ZM586.885 179.905V184.75C586.885 185.15 586.97 185.435 587.14 185.605C587.31 185.765 587.605 185.845 588.025 185.845H589.03V187H587.8C587.04 187 586.47 186.825 586.09 186.475C585.71 186.125 585.52 185.55 585.52 184.75V179.905H584.455V178.78H585.52V176.71H586.885V178.78H589.03V179.905H586.885ZM591.389 177.445C591.129 177.445 590.909 177.355 590.729 177.175C590.549 176.995 590.459 176.775 590.459 176.515C590.459 176.255 590.549 176.035 590.729 175.855C590.909 175.675 591.129 175.585 591.389 175.585C591.639 175.585 591.849 175.675 592.019 175.855C592.199 176.035 592.289 176.255 592.289 176.515C592.289 176.775 592.199 176.995 592.019 177.175C591.849 177.355 591.639 177.445 591.389 177.445ZM592.049 178.78V187H590.684V178.78H592.049ZM598.381 178.63C599.381 178.63 600.191 178.935 600.811 179.545C601.431 180.145 601.741 181.015 601.741 182.155V187H600.391V182.35C600.391 181.53 600.186 180.905 599.776 180.475C599.366 180.035 598.806 179.815 598.096 179.815C597.376 179.815 596.801 180.04 596.371 180.49C595.951 180.94 595.741 181.595 595.741 182.455V187H594.376V178.78H595.741V179.95C596.011 179.53 596.376 179.205 596.836 178.975C597.306 178.745 597.821 178.63 598.381 178.63ZM607.36 178.645C608.07 178.645 608.69 178.8 609.22 179.11C609.76 179.42 610.16 179.81 610.42 180.28V178.78H611.8V187.18C611.8 187.93 611.64 188.595 611.32 189.175C611 189.765 610.54 190.225 609.94 190.555C609.35 190.885 608.66 191.05 607.87 191.05C606.79 191.05 605.89 190.795 605.17 190.285C604.45 189.775 604.025 189.08 603.895 188.2H605.245C605.395 188.7 605.705 189.1 606.175 189.4C606.645 189.71 607.21 189.865 607.87 189.865C608.62 189.865 609.23 189.63 609.7 189.16C610.18 188.69 610.42 188.03 610.42 187.18V185.455C610.15 185.935 609.75 186.335 609.22 186.655C608.69 186.975 608.07 187.135 607.36 187.135C606.63 187.135 605.965 186.955 605.365 186.595C604.775 186.235 604.31 185.73 603.97 185.08C603.63 184.43 603.46 183.69 603.46 182.86C603.46 182.02 603.63 181.285 603.97 180.655C604.31 180.015 604.775 179.52 605.365 179.17C605.965 178.82 606.63 178.645 607.36 178.645ZM610.42 182.875C610.42 182.255 610.295 181.715 610.045 181.255C609.795 180.795 609.455 180.445 609.025 180.205C608.605 179.955 608.14 179.83 607.63 179.83C607.12 179.83 606.655 179.95 606.235 180.19C605.815 180.43 605.48 180.78 605.23 181.24C604.98 181.7 604.855 182.24 604.855 182.86C604.855 183.49 604.98 184.04 605.23 184.51C605.48 184.97 605.815 185.325 606.235 185.575C606.655 185.815 607.12 185.935 607.63 185.935C608.14 185.935 608.605 185.815 609.025 185.575C609.455 185.325 609.795 184.97 610.045 184.51C610.295 184.04 610.42 183.495 610.42 182.875Z" fill="url(#paint4_linear_8_62)"
    />
</g>
<!-- END: Description -->


<!-- Additional -->
<g class="animate-fade-in-right additional">
  <g class="additional__indicator animate-fade-in">
    <circle cx="373" cy="215" r="5" fill="#FCFBFF" class="animate-ping" />
    <circle cx="373" cy="215" r="3" fill="#C4B5FD" />
  </g>
  <g class="additional__text">
    <path d="M391.362 217.298H387.803L387.214 219H385.333L388.546 210.053H390.632L393.845 219H391.95L391.362 217.298ZM390.875 215.864L389.582 212.126L388.29 215.864H390.875ZM403.071 210.066L399.795 219H397.619L394.342 210.066H396.262L398.719 217.17L401.164 210.066H403.071ZM409.624 217.298H406.066L405.477 219H403.595L406.808 210.053H408.895L412.107 219H410.213L409.624 217.298ZM409.138 215.864L407.845 212.126L406.552 215.864H409.138ZM415.1 210.066V219H413.308V210.066H415.1ZM418.663 217.579H421.607V219H416.871V210.066H418.663V217.579ZM428.224 217.298H424.666L424.077 219H422.195L425.408 210.053H427.495L430.707 219H428.813L428.224 217.298ZM427.738 215.864L426.445 212.126L425.152 215.864H427.738ZM436.977 214.418C437.48 214.511 437.894 214.763 438.219 215.173C438.543 215.582 438.705 216.052 438.705 216.581C438.705 217.059 438.586 217.481 438.347 217.848C438.116 218.206 437.779 218.488 437.335 218.693C436.892 218.898 436.367 219 435.761 219H431.908V210.066H435.595C436.2 210.066 436.721 210.164 437.156 210.36C437.6 210.556 437.933 210.829 438.155 211.179C438.385 211.529 438.5 211.926 438.5 212.37C438.5 212.89 438.359 213.325 438.078 213.675C437.805 214.025 437.438 214.273 436.977 214.418ZM433.7 213.752H435.339C435.765 213.752 436.094 213.658 436.324 213.47C436.555 213.274 436.67 212.997 436.67 212.638C436.67 212.28 436.555 212.003 436.324 211.806C436.094 211.61 435.765 211.512 435.339 211.512H433.7V213.752ZM435.505 217.541C435.94 217.541 436.277 217.438 436.516 217.234C436.764 217.029 436.887 216.739 436.887 216.363C436.887 215.979 436.759 215.681 436.503 215.467C436.247 215.245 435.902 215.134 435.467 215.134H433.7V217.541H435.505ZM441.925 217.579H444.869V219H440.133V210.066H441.925V217.579ZM447.8 211.512V213.752H450.808V215.173H447.8V217.541H451.192V219H446.008V210.053H451.192V211.512H447.8ZM461.388 210.066V211.512H457.663V213.803H460.517V215.224H457.663V219H455.871V210.066H461.388ZM466.805 219.09C465.969 219.09 465.201 218.893 464.501 218.501C463.802 218.108 463.247 217.566 462.837 216.875C462.428 216.175 462.223 215.386 462.223 214.507C462.223 213.637 462.428 212.856 462.837 212.165C463.247 211.465 463.802 210.919 464.501 210.526C465.201 210.134 465.969 209.938 466.805 209.938C467.65 209.938 468.418 210.134 469.109 210.526C469.809 210.919 470.36 211.465 470.761 212.165C471.17 212.856 471.375 213.637 471.375 214.507C471.375 215.386 471.17 216.175 470.761 216.875C470.36 217.566 469.809 218.108 469.109 218.501C468.41 218.893 467.642 219.09 466.805 219.09ZM466.805 217.49C467.343 217.49 467.817 217.37 468.226 217.131C468.636 216.884 468.956 216.534 469.186 216.082C469.417 215.629 469.532 215.105 469.532 214.507C469.532 213.91 469.417 213.389 469.186 212.946C468.956 212.493 468.636 212.148 468.226 211.909C467.817 211.67 467.343 211.55 466.805 211.55C466.268 211.55 465.79 211.67 465.372 211.909C464.962 212.148 464.642 212.493 464.412 212.946C464.181 213.389 464.066 213.91 464.066 214.507C464.066 215.105 464.181 215.629 464.412 216.082C464.642 216.534 464.962 216.884 465.372 217.131C465.79 217.37 466.268 217.49 466.805 217.49ZM477.316 219L475.345 215.518H474.5V219H472.708V210.066H476.062C476.753 210.066 477.342 210.189 477.828 210.437C478.315 210.676 478.677 211.004 478.916 211.422C479.164 211.832 479.287 212.293 479.287 212.805C479.287 213.394 479.117 213.927 478.775 214.405C478.434 214.874 477.926 215.198 477.252 215.378L479.39 219H477.316ZM474.5 214.174H475.998C476.484 214.174 476.847 214.059 477.086 213.829C477.325 213.59 477.444 213.261 477.444 212.843C477.444 212.434 477.325 212.118 477.086 211.896C476.847 211.666 476.484 211.55 475.998 211.55H474.5V214.174ZM491.369 210.066V219H489.577V215.198H485.75V219H483.958V210.066H485.75V213.739H489.577V210.066H491.369ZM494.925 210.066V219H493.133V210.066H494.925ZM501.304 219L499.333 215.518H498.488V219H496.696V210.066H500.049C500.741 210.066 501.329 210.189 501.816 210.437C502.302 210.676 502.665 211.004 502.904 211.422C503.151 211.832 503.275 212.293 503.275 212.805C503.275 213.394 503.104 213.927 502.763 214.405C502.422 214.874 501.914 215.198 501.24 215.378L503.377 219H501.304ZM498.488 214.174H499.985C500.472 214.174 500.834 214.059 501.073 213.829C501.312 213.59 501.432 213.261 501.432 212.843C501.432 212.434 501.312 212.118 501.073 211.896C500.834 211.666 500.472 211.55 499.985 211.55H498.488V214.174ZM506.688 211.512V213.752H509.696V215.173H506.688V217.541H510.08V219H504.896V210.053H510.08V211.512H506.688Z" fill="url(#paint4_linear_8_62)"/>
    <path d="M373 220C375.761 220 378 217.761 378 215C378 212.239 375.761 210 373 210C370.239 210 368 212.239 368 215C368 217.761 370.239 220 373 220Z" fill="#FFFFF"/>
    <path d="M373 218C374.657 218 376 216.657 376 215C376 213.343 374.657 212 373 212C371.343 212 370 213.343 370 215C370 216.657 371.343 218 373 218Z" fill="#186F65"/>
   </g>
  </g>
<!-- END: Additional-->
</g>


 <!-- Defs -->
<defs>
<linearGradient id="paint0_linear_8_62" x1="448" y1="0" x2="448" y2="288" gradientUnits="userSpaceOnUse">
<stop stop-color="#219C90" stop-opacity="0.41"/>
<stop offset="1" stop-color="#0F172A" stop-opacity="0"/>
</linearGradient>
<linearGradient id="paint1_linear_8_62" x1="448" y1="0" x2="448" y2="288" gradientUnits="userSpaceOnUse">
<stop/>

<stop offset="1" stop-opacity="0"/>
</linearGradient>
<linearGradient id="paint2_linear_8_62" x1="448" y1="90" x2="448" y2="173" gradientUnits="userSpaceOnUse">
<stop stop-color="#186F65"/>
<stop offset="1" stop-color="#186F65" stop-opacity="0.5"/>
</linearGradient>
<linearGradient id="paint3_linear_8_62" x1="447.5" y1="170" x2="447.5" y2="197.5" gradientUnits="userSpaceOnUse">
<stop stop-color="white"/>
<stop offset="1" stop-color="white" stop-opacity="0.5"/>
</linearGradient>
<linearGradient id="paint4_linear_8_62" x1="448" y1="205" x2="448" y2="225.5" gradientUnits="userSpaceOnUse">
<stop stop-color="white"/>
<stop offset="1" stop-color="white" stop-opacity="0.5"/>
</linearGradient>
<clipPath id="clip0_8_62">
<rect width="896" height="288" fill="white"/>
</clipPath>
</defs>
</svg>
